<svg xmlns="http://www.w3.org/2000/svg" viewBox="0 0 1440 1080" role="img" aria-label="Diamants futuristes bleus" preserveAspectRatio="xMidYMid slice">
  <defs>
    <linearGradient id="bg" x1="0" x2="1" y1="0" y2="1">
      <stop offset="0%" stop-color="#0b1224"/>
      <stop offset="50%" stop-color="#0f1f3a"/>
      <stop offset="100%" stop-color="#0b1327"/>
    </linearGradient>
    <radialGradient id="glow" cx="50%" cy="45%" r="60%">
      <stop offset="0%" stop-color="#7fc3ff" stop-opacity="0.6"/>
      <stop offset="60%" stop-color="#3d6fff" stop-opacity="0.15"/>
      <stop offset="100%" stop-color="#0b1224" stop-opacity="0"/>
    </radialGradient>
    <linearGradient id="diamond" x1="0" x2="1" y1="0" y2="1">
      <stop offset="0%" stop-color="#c5e7ff"/>
      <stop offset="40%" stop-color="#7bb7ff"/>
      <stop offset="100%" stop-color="#5aa0ff"/>
    </linearGradient>
    <filter id="shadow" x="-30%" y="-30%" width="160%" height="160%" color-interpolation-filters="sRGB">
      <feDropShadow dx="0" dy="18" stdDeviation="28" flood-color="#0f1f3a" flood-opacity="0.55"/>
    </filter>
  </defs>
  <rect width="1440" height="1080" fill="url(#bg)"/>
  <rect width="1440" height="1080" fill="url(#glow)" opacity="0.7"/>
  <g filter="url(#shadow)" fill="url(#diamond)">
    <path d="M470 340 L560 290 L650 340 L720 470 L560 680 L400 470 Z" opacity="0.9"/>
    <path d="M870 260 L960 210 L1050 260 L1130 400 L960 640 L790 400 Z" opacity="0.78"/>
    <path d="M690 500 L760 460 L830 500 L880 590 L760 760 L640 590 Z" opacity="0.86"/>
  </g>
  <g fill="none" stroke="#8fc2ff" stroke-width="2" stroke-opacity="0.35">
    <path d="M300 260 C420 280 520 220 640 260"/>
    <path d="M820 200 C940 230 1040 190 1180 230"/>
    <path d="M520 760 C640 730 720 800 860 760"/>
  </g>
  <g fill="#9fd2ff" fill-opacity="0.14">
    <circle cx="380" cy="260" r="6"/>
    <circle cx="1120" cy="260" r="6"/>
    <circle cx="940" cy="720" r="5"/>
    <circle cx="520" cy="820" r="5"/>
    <circle cx="760" cy="180" r="5"/>
  </g>
  <g fill="#6fb0ff" fill-opacity="0.4">
    <circle cx="540" cy="360" r="4"/>
    <circle cx="880" cy="320" r="4"/>
    <circle cx="760" cy="560" r="4"/>
    <circle cx="980" cy="440" r="4"/>
    <circle cx="660" cy="680" r="4"/>
  </g>
</svg>
